<?xml version="1.0" encoding="UTF-8" standalone="no"?>
<!-- Created with Inkscape (http://www.inkscape.org/) -->

<svg
   version="1.1"
   id="svg495"
   xml:space="preserve"
   width="32"
   height="32"
   viewBox="0 0 32 32"
   xmlns="http://www.w3.org/2000/svg"
   xmlns:svg="http://www.w3.org/2000/svg"><defs
     id="defs499"><clipPath
       clipPathUnits="userSpaceOnUse"
       id="clipPath509"><path
         d="M 0,24 H 24 V 0 H 0 Z"
         id="path507" /></clipPath></defs><g
     id="g501"
     transform="matrix(1.3333333,0,0,-1.3333333,0,32)"><g
       id="g503"><g
         id="g505"
         clip-path="url(#clipPath509)"><g
           id="g511"
           transform="translate(1.5,3.5)"><path
             d="M 0,0 V 17"
             style="fill:none;stroke:#000000;stroke-width:3;stroke-linecap:round;stroke-linejoin:round;stroke-miterlimit:10;stroke-dasharray:none;stroke-opacity:1"
             id="path513" /></g><g
           id="g515"
           transform="translate(11.5,10)"><path
             d="m 0,0 v 3.5 c 0,1.657 1.343,3 3,3 h 5 c 1.657,0 3,-1.343 3,-3 v -10"
             style="fill:none;stroke:#000000;stroke-width:3;stroke-linecap:round;stroke-linejoin:round;stroke-miterlimit:10;stroke-dasharray:none;stroke-opacity:1"
             id="path517" /></g><g
           id="g519"
           transform="translate(9,12.5)"><path
             d="M 0,0 C 0,-1.381 -1.119,-2.5 -2.5,-2.5 -3.881,-2.5 -5,-1.381 -5,0 -5,1.381 -3.881,2.5 -2.5,2.5 -1.119,2.5 0,1.381 0,0"
             style="fill:#000000;fill-opacity:1;fill-rule:nonzero;stroke:none"
             id="path521" /></g><path
           d="m 22.5,5 h -21 v 5 h 21 z"
           style="fill:#000000;fill-opacity:1;fill-rule:nonzero;stroke:none"
           id="path523" /></g></g></g></svg>
